<svg width="30" height="30" viewBox="0 0 30 30" fill="none" xmlns="http://www.w3.org/2000/svg">
<g clip-path="url(#clip0_1603_5)">
<path d="M19.0877 13.6437C19.0877 14.845 18.6977 15.9547 18.0408 16.855L21.3542 20.171C21.6813 20.4981 21.6813 21.0294 21.3542 21.3565C21.027 21.6837 20.4957 21.6837 20.1686 21.3565L16.8552 18.0406C15.9549 18.7001 14.8452 19.0874 13.6439 19.0874C10.6368 19.0874 8.2002 16.6508 8.2002 13.6437C8.2002 10.6366 10.6368 8.19995 13.6439 8.19995C16.6511 8.19995 19.0877 10.6366 19.0877 13.6437ZM13.6439 17.4124C14.1389 17.4124 14.6289 17.315 15.0862 17.1256C15.5434 16.9362 15.9589 16.6586 16.3088 16.3086C16.6588 15.9586 16.9364 15.5432 17.1258 15.0859C17.3152 14.6287 17.4127 14.1386 17.4127 13.6437C17.4127 13.1488 17.3152 12.6587 17.1258 12.2015C16.9364 11.7442 16.6588 11.3288 16.3088 10.9788C15.9589 10.6288 15.5434 10.3512 15.0862 10.1618C14.6289 9.97243 14.1389 9.87495 13.6439 9.87495C13.149 9.87495 12.6589 9.97243 12.2017 10.1618C11.7445 10.3512 11.329 10.6288 10.979 10.9788C10.6291 11.3288 10.3515 11.7442 10.1621 12.2015C9.97267 12.6587 9.87519 13.1488 9.87519 13.6437C9.87519 14.1386 9.97267 14.6287 10.1621 15.0859C10.3515 15.5432 10.6291 15.9586 10.979 16.3086C11.329 16.6586 11.7445 16.9362 12.2017 17.1256C12.6589 17.315 13.149 17.4124 13.6439 17.4124Z" fill="white"/>
</g>
<defs>
<clipPath id="clip0_1603_5">
<rect width="13.4" height="13.4" fill="white" transform="translate(8.2002 8.19995)"/>
</clipPath>
</defs>
</svg>
